<svg id="SvgjsSvg1001" width="288" height="288" xmlns="http://www.w3.org/2000/svg" version="1.1" xmlns:xlink="http://www.w3.org/1999/xlink" xmlns:svgjs="http://svgjs.com/svgjs"><defs id="SvgjsDefs1002"></defs><g id="SvgjsG1008" transform="matrix(0.9167,0,0,0.9167,11.995199976982889,11.995200000000011)"><svg xmlns="http://www.w3.org/2000/svg" width="288" height="288" enable-background="new 0 0 497 497" viewBox="0 0 497 497"><g fill="#52a3cc" class="color50758d svgShape"><path d="m336.993 200.5c-1.464 0-2.943-.427-4.241-1.319-3.414-2.346-4.28-7.015-1.934-10.429l112-163c2.347-3.414 7.016-4.279 10.429-1.934 3.414 2.346 4.28 7.015 1.934 10.429l-112 163c-1.453 2.117-3.801 3.253-6.188 3.253z" fill="#66ccff" class="color000 svgShape"></path><path d="m336.995 200.5c-1.635 0-3.282-.532-4.661-1.628l-112-89c-3.243-2.577-3.783-7.295-1.206-10.538 2.578-3.244 7.295-3.784 10.538-1.206l112 89c3.243 2.577 3.783 7.295 1.206 10.538-1.481 1.863-3.668 2.834-5.877 2.834z" fill="#66ccff" class="color000 svgShape"></path><path d="m112.005 200.5c-2.22 0-4.417-.981-5.897-2.86-2.563-3.254-2.002-7.97 1.251-10.533l113-89c3.253-2.563 7.969-2.003 10.533 1.251 2.563 3.254 2.002 7.97-1.251 10.533l-113 89c-1.375 1.084-3.012 1.609-4.636 1.609z" fill="#66ccff" class="color000 svgShape"></path></g><circle cx="449" cy="30" r="30" fill="#66ccff" class="color93ddb7 svgShape"></circle><circle cx="337" cy="193" r="30" fill="#52a3cc" class="color2edffc svgShape"></circle><circle cx="225" cy="104" r="30" fill="#66ccff" class="colorffc682 svgShape"></circle><circle cx="112" cy="193" r="30" fill="#52a3cc" class="colorfd646f svgShape"></circle><path fill="#52a3cc" d="m131.28 215.97c-5.21 4.39-11.94 7.03-19.28 7.03-11.14 0-20.86-6.07-26.03-15.09-4.212-7.289-5.099-17.371-2.08-25.39 3.38-9.09 11.04-16.09 20.54-18.55-5.42 5.54-8.77 13.15-8.77 21.54 0 17.04 13.8 30.84 30.83 30.84 1.63 0 3.23-.13 4.79-.38z" class="colorfc4755 svgShape"></path><path fill="#66ccff" d="m244.28 126.97c-5.21 4.39-11.94 7.03-19.28 7.03-11.14 0-20.86-6.07-26.03-15.09-4.212-7.289-5.099-17.371-2.08-25.39 3.38-9.09 11.04-16.09 20.54-18.55-5.42 5.54-8.77 13.15-8.77 21.54 0 17.04 13.8 30.84 30.83 30.84 1.63 0 3.23-.13 4.79-.38z" class="colorffac5c svgShape"></path><path fill="#52a3cc" d="m356.28 215.97c-5.21 4.39-11.94 7.03-19.28 7.03-11.14 0-20.86-6.07-26.03-15.09-4.212-7.289-5.099-17.371-2.08-25.39 3.38-9.09 11.04-16.09 20.54-18.55-5.42 5.54-8.77 13.15-8.77 21.54 0 17.04 13.8 30.84 30.83 30.84 1.63 0 3.23-.13 4.79-.38z" class="color27bdf3 svgShape"></path><path fill="#66ccff" d="m468.28 52.97c-5.21 4.39-11.94 7.03-19.28 7.03-11.14 0-20.86-6.07-26.03-15.09-4.212-7.289-5.099-17.371-2.08-25.39 3.38-9.09 11.04-16.09 20.54-18.55-5.42 5.54-8.77 13.15-8.77 21.54 0 17.04 13.8 30.84 30.83 30.84 1.63 0 3.23-.13 4.79-.38z" class="color5ed297 svgShape"></path><path fill="#52a3cc" d="m256.499 462h230.501c5.523 0 10 4.477 10 10v15c0 5.523-4.477 10-10 10h-472c-4.14 0-7.89-1.68-10.6-4.4-2.72-2.71-4.4-6.46-4.4-10.6v-94.5-34-343.5c0-5.523 4.477-10 10-10h15c5.523 0 10 4.477 10 10v452h187.499z" class="color50758d svgShape"></path><path fill="#52a3cc" d="m30 497h-15c-4.14 0-7.89-1.68-10.6-4.4-2.72-2.71-4.4-6.46-4.4-10.6v-472c0-5.52 4.48-10 10-10h15c-5.52 0-10 4.48-10 10v472c0 4.14 1.68 7.89 4.4 10.6 2.71 2.72 6.46 4.4 10.6 4.4z" class="color2b597f svgShape"></path><path fill="#52a3cc" d="m129 424h-30c-5.523 0-10-4.477-10-10v-120c0-5.523 4.477-10 10-10h30c5.523 0 10 4.477 10 10v120c0 5.523-4.477 10-10 10z" class="colorfd646f svgShape"></path><path fill="#66ccff" d="m240 424h-30c-5.523 0-10-4.477-10-10v-209c0-5.523 4.477-10 10-10h30c5.523 0 10 4.477 10 10v209c0 5.523-4.477 10-10 10z" class="colorffc682 svgShape"></path><path fill="#52a3cc" d="m352 424h-30c-5.523 0-10-4.477-10-10v-120c0-5.523 4.477-10 10-10h30c5.523 0 10 4.477 10 10v120c0 5.523-4.477 10-10 10z" class="color2edffc svgShape"></path><path fill="#66ccff" d="m464 424h-30c-5.523 0-10-4.477-10-10v-283c0-5.523 4.477-10 10-10h30c5.523 0 10 4.477 10 10v283c0 5.523-4.477 10-10 10z" class="color93ddb7 svgShape"></path><path fill="#52a3cc" d="m119 424h-20c-5.52 0-10-4.48-10-10v-120c0-5.52 4.48-10 10-10h20c-5.52 0-10 4.48-10 10v120c0 5.52 4.48 10 10 10z" class="colorfc4755 svgShape"></path><path fill="#66ccff" d="m230 424h-20c-5.52 0-10-4.48-10-10v-209c0-5.52 4.48-10 10-10h20c-5.52 0-10 4.48-10 10v209c0 5.52 4.48 10 10 10z" class="colorffac5c svgShape"></path><path fill="#52a3cc" d="m342 424h-20c-5.52 0-10-4.48-10-10v-120c0-5.52 4.48-10 10-10h20c-5.52 0-10 4.48-10 10v120c0 5.52 4.48 10 10 10z" class="color27bdf3 svgShape"></path><path fill="#66ccff" d="m454 424h-20c-5.52 0-10-4.48-10-10v-283c0-5.52 4.48-10 10-10h20c-5.52 0-10 4.48-10 10v283c0 5.52 4.48 10 10 10z" class="color5ed297 svgShape"></path></svg></g></svg>