<?xml version="1.0" encoding="UTF-8" standalone="no"?>
<!DOCTYPE svg PUBLIC "-//W3C//DTD SVG 1.1//EN" "http://www.w3.org/Graphics/SVG/1.1/DTD/svg11.dtd">
<svg version="1.1" xmlns="http://www.w3.org/2000/svg" xmlns:xlink="http://www.w3.org/1999/xlink" preserveAspectRatio="xMidYMid meet" viewBox="0 0 640 640" width="640" height="640"><defs><path d="M7.96 453.39L187.05 453.39L187.05 633.11L7.96 633.11L7.96 453.39Z" id="a3pJtg2poB"></path><path d="M184.81 453.39L363.89 453.39L363.89 633.11L184.81 633.11L184.81 453.39Z" id="a4sRcqKX48"></path><path d="M363.89 453.39L542.98 453.39L542.98 633.11L363.89 633.11L363.89 453.39Z" id="a1aLgj4Fe5"></path><path d="M363.89 275.92L542.98 275.92L542.98 455.64L363.89 455.64L363.89 275.92Z" id="c5Sv5TJ4vG"></path><path d="M184.81 275.92L363.89 275.92L363.89 455.64L184.81 455.64L184.81 275.92Z" id="a5A18vhmFq"></path><path d="M363.89 98.44L542.98 98.44L542.98 278.16L363.89 278.16L363.89 98.44Z" id="d1cWW79Sio"></path><path d="" id="iKvQLkIqv"></path><path d="M366.13 633.11L455.68 543.25L455.68 365.78L366.13 455.64" id="a2LEEz2mFM"></path><path d="M542.98 633.11L632.52 543.25L632.52 365.78L542.98 455.64" id="d6R9FU4PhZ"></path><path d="M187.05 633.11L276.59 543.25L276.59 365.78L187.05 455.64" id="e160dT32LN"></path><path d="M10.2 624.12L99.74 540.75L99.74 376.1L10.2 459.47" id="c1ENvJucyr"></path><path d="M542.98 278.16L632.52 188.3L632.52 10.83L542.98 100.69" id="b5gHcE0bD"></path><path d="M366.13 275.92L455.68 186.06L455.68 8.58L366.13 98.44" id="e2KfMDvYfu"></path><path d="M637 365.78L101.98 365.78" id="b1nMFhSUer"></path><path d="M632.52 8.58L455.68 8.58" id="b1RhNtZSdk"></path><path d="M632.52 188.3L632.52 365.78" id="k3PE3CN1x8"></path><path d="M632.52 188.3L276.59 188.3L184.81 275.92" id="e55H3GLw1l"></path><path d="M632.52 365.78L452.68 365.78L274.35 365.78L274.35 188.3" id="dsUPJyDQn"></path><path d="M632.52 543.25L455.68 543.25L453.44 188.3" id="c62IAO579n"></path><path d="M97.5 543.25L455.68 543.25" id="a6sNi3uz13"></path></defs><g><g><g><use xlink:href="#a3pJtg2poB" opacity="1" fill="#000000" fill-opacity="0"></use><g><use xlink:href="#a3pJtg2poB" opacity="1" fill-opacity="0" stroke="#f3f3f3" stroke-width="15" stroke-opacity="1"></use></g></g><g><use xlink:href="#a4sRcqKX48" opacity="1" fill="#000000" fill-opacity="0"></use><g><use xlink:href="#a4sRcqKX48" opacity="1" fill-opacity="0" stroke="#f3f3f3" stroke-width="15" stroke-opacity="1"></use></g></g><g><use xlink:href="#a1aLgj4Fe5" opacity="1" fill="#000000" fill-opacity="0"></use><g><use xlink:href="#a1aLgj4Fe5" opacity="1" fill-opacity="0" stroke="#f3f3f3" stroke-width="15" stroke-opacity="1"></use></g></g><g><use xlink:href="#c5Sv5TJ4vG" opacity="1" fill="#000000" fill-opacity="0"></use><g><use xlink:href="#c5Sv5TJ4vG" opacity="1" fill-opacity="0" stroke="#f3f3f3" stroke-width="15" stroke-opacity="1"></use></g></g><g><use xlink:href="#a5A18vhmFq" opacity="1" fill="#000000" fill-opacity="0"></use><g><use xlink:href="#a5A18vhmFq" opacity="1" fill-opacity="0" stroke="#f3f3f3" stroke-width="15" stroke-opacity="1"></use></g></g><g><use xlink:href="#d1cWW79Sio" opacity="1" fill="#000000" fill-opacity="0"></use><g><use xlink:href="#d1cWW79Sio" opacity="1" fill-opacity="0" stroke="#f3f3f3" stroke-width="15" stroke-opacity="1"></use></g></g><g><g><use xlink:href="#iKvQLkIqv" opacity="1" fill-opacity="0" stroke="#f3f3f3" stroke-width="15" stroke-opacity="1"></use></g></g><g><g><use xlink:href="#a2LEEz2mFM" opacity="1" fill-opacity="0" stroke="#f3f3f3" stroke-width="15" stroke-opacity="1"></use></g></g><g><g><use xlink:href="#d6R9FU4PhZ" opacity="1" fill-opacity="0" stroke="#f3f3f3" stroke-width="15" stroke-opacity="1"></use></g></g><g><g><use xlink:href="#e160dT32LN" opacity="1" fill-opacity="0" stroke="#f3f3f3" stroke-width="15" stroke-opacity="1"></use></g></g><g><g><use xlink:href="#c1ENvJucyr" opacity="1" fill-opacity="0" stroke="#f3f3f3" stroke-width="15" stroke-opacity="1"></use></g></g><g><g><use xlink:href="#b5gHcE0bD" opacity="1" fill-opacity="0" stroke="#f3f3f3" stroke-width="15" stroke-opacity="1"></use></g></g><g><g><use xlink:href="#e2KfMDvYfu" opacity="1" fill-opacity="0" stroke="#f3f3f3" stroke-width="15" stroke-opacity="1"></use></g></g><g><g><use xlink:href="#b1nMFhSUer" opacity="1" fill-opacity="0" stroke="#f3f3f3" stroke-width="15" stroke-opacity="1"></use></g></g><g><g><use xlink:href="#b1RhNtZSdk" opacity="1" fill-opacity="0" stroke="#f3f3f3" stroke-width="15" stroke-opacity="1"></use></g></g><g><g><use xlink:href="#k3PE3CN1x8" opacity="1" fill-opacity="0" stroke="#f3f3f3" stroke-width="15" stroke-opacity="1"></use></g></g><g><g><use xlink:href="#e55H3GLw1l" opacity="1" fill-opacity="0" stroke="#f3f3f3" stroke-width="15" stroke-opacity="1"></use></g></g><g><g><use xlink:href="#dsUPJyDQn" opacity="1" fill-opacity="0" stroke="#f3f3f3" stroke-width="15" stroke-opacity="1"></use></g></g><g><g><use xlink:href="#c62IAO579n" opacity="1" fill-opacity="0" stroke="#f3f3f3" stroke-width="15" stroke-opacity="1"></use></g></g><g><g><use xlink:href="#a6sNi3uz13" opacity="1" fill-opacity="0" stroke="#f3f3f3" stroke-width="15" stroke-opacity="1"></use></g></g></g></g></svg>