
<svg width="39" height="30" viewBox="0 0 39 30" fill="none" xmlns="http://www.w3.org/2000/svg">
<path d="M16.2636 2.06664C5.97905 3.59334 0.161094 11.2862 0.610242 19.9145C0.942424 26.2959 4.54495 29.7132 9.57813 29.4512C14.2518 29.2079 17.8395 25.4163 17.5869 20.5629C17.3389 15.7993 14.389 12.7986 10.2546 13.0138C8.54686 13.1027 7.8372 13.3199 6.50306 13.6597C6.46858 7.80358 11.8913 4.6374 16.3291 3.32493L16.2636 2.06664ZM37.2951 0.971841C27.0106 2.49854 21.1926 10.1914 21.6418 18.8197C21.974 25.2011 25.5765 28.6184 30.6097 28.3564C35.2833 28.1131 38.8711 24.3215 38.6184 19.4681C38.3705 14.7045 35.4205 11.7038 31.2861 11.919C29.5784 12.0079 28.8687 12.2251 27.5346 12.5649C27.5001 6.70879 32.9228 3.5426 37.3606 2.23014L37.2951 0.971841Z" fill="#4704a1"/>
</svg>
